<?xml version="1.0" encoding="utf-8"?>
<!-- Generator: Adobe Illustrator 16.0.0, SVG Export Plug-In . SVG Version: 6.00 Build 0)  -->
<!DOCTYPE svg PUBLIC "-//W3C//DTD SVG 1.1//EN" "http://www.w3.org/Graphics/SVG/1.1/DTD/svg11.dtd">
<svg version="1.1" xmlns="http://www.w3.org/2000/svg" xmlns:xlink="http://www.w3.org/1999/xlink" x="0px" y="0px" width="500px"
	 height="500px" viewBox="0 0 500 500" enable-background="new 0 0 500 500" xml:space="preserve">
<g id="Layer_1">
</g>
<g id="Layer_3">
</g>
<g id="Layer_4">
	<g>
		<rect fill="#EF4337" width="500" height="500"/>
		<path fill="none" stroke="#FFFFFF" stroke-width="7" stroke-miterlimit="10" d="M12.3,39l123.6,2.2L433.2,39c0,0,5.7,0.8,7.3,5.8
			c1.7,5,3.3,8.3,6,9c1,5.7,0,12.3,0,12.3l-28.7,33h63l6.9,9l-8.9,2.7l2,9.3l-20.3,11.7l-0.3,6l6,4c0,0-4.3,11.7-3,13.3
			c-6.7,2.7-9.7,5-9.7,5v6l-7,2.3l-0.7-4c0,0-7.7,2.3-9.3,10c4,4.7,4.3,0.7,6.3,0c2-0.7,2.7,2,1.7,12.3c-1,10.3,5.7,16.7,5.7,16.7
			l-6.7,5l-9,1.7l-7,9.3l1.3,10.3l-14,9.7l-3.3,8.7h-7.7l0.7,9.3l-5.3,5.3l4,12l-4.3,2l-0.3,12l-14,4.7v7.3l-15.7,9.3l-0.3,4l-7,4.7
			l2.7,6.7l-3.3,15.3l-8.7-3.3l1,23.7l-6.3,6l3,5l-6.7,2.7l-5-1.7l5,12.3l-5,8l8.7,21.3l-2.7,6.7l4,7.3l7-2.3l-4,13.7l-9.7,3.3
			l3.3,9.7l-5,7.9l-271.9-3.9l-0.7-66l-4-2l-7,1c0,0-1.3-7.3-5.3-0.7c-2.7,3.3-16.3,2.7-16.3,2.7s-9.7-6.7-9.7-12.3
			s5.3-208.6,5.3-208.6L12.3,39z"/>
		<g>
			<path fill="#FFFFFF" d="M93.9,66.1c0,0,4.2,2.9,4.2,8.1c0,9-12.2,19-12.2,28.3c0,10.1,7.7,16.7,15.2,18.7c1,0.2,1.5-1,0.2-1.3
				c-3-0.7-6.4-4.7-6.4-10.9c0-5.7,5.5-7.9,7.7-10.7c2.3-2.9,1.7-6.5,0.4-7.5c-1.3-1.1-0.4-2.5,2-0.8c2.4,1.7,4.4,4.8,3.6,7.8
				c-0.9,3.8,0.3,6,2.3,6.3c2,0.3,4.2-0.7,4-2.6c-0.2-1.8-1.3-3.8-0.7-3.8c1.4,0,4.4,3.5,4.4,9c0,5.5-4.6,9.4-5.9,10.8
				c-0.8,0.9,0.3,2,1.4,1.5c0.6-0.3,1.8-1,2.6-1.5c3.6-2.6,9.2-7.8,9.2-17.4c0-10.1-3.8-14.6-7.7-18.4c-3.8-3.8-4.8-2.8-3.7-1
				c3.3,5.6,1.3,7.5-1.1,7.5c-2.8,0-3-6.4-4.1-11.3c-2.4-10.8-12.2-12.7-14-12.8C93.4,64.1,91.7,65.2,93.9,66.1"/>
			<path fill="#FFFFFF" d="M46.3,98.5c0-12.4,4.3-23.4,12.9-33.2c3.2-3.6,5.6-5.4,7.3-5.4c0.6,0,1.2,0.2,1.8,0.7
				c0.5,0.5,0.8,1,0.8,1.6c0,0.9-1.1,2.4-3.3,4.5c-9,8.6-13.4,19.3-13.4,32c0,14.1,4.6,25.6,13.9,34.5c1.9,1.8,2.8,3.2,2.8,4.3
				c0,0.7-0.3,1.3-0.8,1.8c-0.5,0.5-1.1,0.8-1.8,0.8c-2.2,0-5.2-2.5-9.2-7.6C49.9,123.2,46.3,111.8,46.3,98.5"/>
			<path fill="#FFFFFF" d="M162.3,101.6c0,12.4-4.3,23.5-12.9,33.2c-3.2,3.6-5.6,5.4-7.3,5.4c-0.6,0-1.2-0.2-1.8-0.7
				c-0.5-0.5-0.8-1-0.8-1.7c0-0.9,1.1-2.4,3.3-4.5c9-8.6,13.4-19.3,13.4-32.1c0-14.1-4.6-25.6-13.9-34.5c-1.9-1.8-2.8-3.2-2.8-4.2
				c0-0.7,0.3-1.3,0.8-1.8c0.5-0.5,1.1-0.8,1.8-0.8c2.1,0,5.1,2.5,9.1,7.6C158.6,77,162.3,88.3,162.3,101.6"/>
			<path fill="#FFFFFF" d="M133.5,134.1H79.1c-1.8,0-3.2-1.4-3.2-3.2c0-1.8,1.4-3.2,3.2-3.2h54.4c1.8,0,3.2,1.4,3.2,3.2
				C136.8,132.6,135.3,134.1,133.5,134.1"/>
		</g>
	</g>
</g>
</svg>
